#define temperature_width 32
#define temperature_height 32
static unsigned char temperature_bits[] = {
   0x00, 0x80, 0x01, 0x00, 0x00, 0xc0, 0x03, 0x00, 0x00, 0x60, 0x06, 0x00,
   0x00, 0x20, 0x04, 0x00, 0x00, 0x20, 0x04, 0x00, 0x00, 0x20, 0x04, 0x00,
   0x00, 0x20, 0x04, 0x00, 0x00, 0x20, 0x04, 0x00, 0x00, 0x20, 0x04, 0x00,
   0x00, 0x20, 0x04, 0x00, 0x00, 0x20, 0x04, 0x00, 0x00, 0x20, 0x04, 0x00,
   0x00, 0x20, 0x04, 0x00, 0x00, 0xa0, 0x05, 0x00, 0x00, 0xa0, 0x05, 0x00,
   0x00, 0xa0, 0x05, 0x00, 0x00, 0xa0, 0x05, 0x00, 0x00, 0xa0, 0x05, 0x00,
   0x00, 0xa0, 0x05, 0x00, 0x00, 0xb0, 0x0d, 0x00, 0x00, 0x98, 0x19, 0x00,
   0x00, 0xcc, 0x33, 0x00, 0x00, 0x64, 0x26, 0x00, 0x00, 0x36, 0x6c, 0x00,
   0x00, 0x16, 0x68, 0x00, 0x00, 0x16, 0x68, 0x00, 0x00, 0x34, 0x2c, 0x00,
   0x00, 0xe4, 0x27, 0x00, 0x00, 0xcc, 0x33, 0x00, 0x00, 0x18, 0x18, 0x00,
   0x00, 0xf0, 0x0f, 0x00, 0x00, 0x80, 0x01, 0x00 };
